<?xml version="1.0" encoding="UTF-8"?>
<svg id="Layer_1" xmlns="http://www.w3.org/2000/svg" version="1.1" viewBox="0 0 160 160">
  <!-- Generator: Adobe Illustrator 29.4.0, SVG Export Plug-In . SVG Version: 2.1.0 Build 152)  -->
  <defs>
    <style>
      .st0 {
        fill: #262626;
      }

      .st1 {
        fill: #f1f1f1;
      }
    </style>
  </defs>
  <rect class="st1" width="160" height="160"/>
  <g>
    <g>
      <path class="st0" d="M125.95,86.89c.17.12.86,1.23.95,1.43-.03,0-1.43-.03-1.61-.15-.05-.04.36-1.19.34-1.24-.09-.21.27-.07.32-.04Z"/>
      <path class="st0" d="M126.9,88.32s-.01.12,0,.16l-.16.08c-.18-.01-.37,0-.55,0-.08,0-.16,0-.24,0-.2,0-.44-.02-.63,0-.15-.15-.63-.66-.64-.83,0-.11.46-.5.53-.51.19-.04.72.82.99.98.28.17.45,0,.71.13Z"/>
      <path class="st0" d="M88.3,98.54c-.22.2-.57-.32-.47-.55.25-.13.56.48.47.55Z"/>
      <path class="st0" d="M96.59,113.76c.05.03.05.05,0,.08v-.08Z"/>
      <path class="st0" d="M61.67,41.95c-.03.15,0,.19.16.16,0,.05-.01.11,0,.16.04.19.11.26.16.4.04.11.14.53.16.55l.08.16c-.01.07,0,.17,0,.24,0,.13.06.3.16.4,0,.05,0,.11,0,.16,0,.1-.03.26.08.32,0,.1,0,.21,0,.32,0,.09-.02.2.08.24,0,.14.06.32.08.48-.12.05-.12.34,0,.4,0,.31-.02.64,0,.95-.13.08-.08.33-.08.48,0,.1,0,.21,0,.32-.1.04-.08.15-.08.24,0,.13,0,.27,0,.4-.11.05-.08.21-.08.32,0,.05,0,.11,0,.16-.1.11-.15.33-.16.48,0,.05,0,.11,0,.16-.04.19-.3.15-.32.16-.05.05.2.5-.02.77-.2.24-.41.19-.29.73-.34-.13-.5,1.09-.48,1.11,0,.13-.51.93-.55,1.03-.11.03-.16.12-.16.24-.22.28-.33.63-.48.95-.17-.02-.18,0-.16.16-.01.01.01.06,0,.08-.23-.05-.25.3-.32.48-.06.14-.11.24-.16.4-.16-.02-.18,0-.16.16-.03.02-.21.54-.24.63-.11.03-.16.12-.16.24-.01.01,0,.11,0,.16-.15-.03-.18,0-.16.16-.07.04-.06.24-.08.32-.2-.06-.2.22-.24.4,0,.05,0,.11,0,.16-.16-.02-.18,0-.16.16-.02.02-.12.39-.16.48-.13.3-.3.61-.32.95,0,.05,0,.11,0,.16-.24.15-.07.42-.08.48-.02.19-.17.91-.08,1.03,0,.19-.05.27.16.24.05.38.06.33.24.63.11.19.05.15.24.32.2.18.17.14.4.24-.07.18.58.38.71.4.05,0,.11,0,.16,0,.02.17-.02.28-.09.42-.24.5-.68,1.14-.98,1.63-.8,1.3-2.26,3.95-3.2,4.92-2.5-2.94-3.9-7.11-1.99-10.75.93-1.77,2.69-2.83,3.56-4.68.76-1.61,1.51-5.45-.28-6.57-1.43-.89-4.94-.52-6.63-.34-4.47.45-8.85,1.44-13.04,3.01-.24.09-1.21.31-1.27.55-.04,0-.15-.01-.16,0-.17-.02-.18-.01-.16.16-.15.03-.18.04-.32.08-.11.03-.17.01-.24.16-2.1.47-5.93,3.63-7.33,5.31-.64.77-1.22,1.89-1.86,2.54l-.32-.04c2.18-5.03,7.39-8.11,12.28-10.07s9.96-2.99,15.14-3.41l.08-.2c-4.92-.11-9.92.86-14.52,2.56s-10.5,4.94-12.65,9.62c-.24.53-.51,1.1-.57,1.69-.4-.14-.21-.4-.24-.79.13-.06.06-.22.08-.32s.05-.22.08-.32c.08-.25.24-.51.32-.79.02-.06-.01-.17,0-.24.22.05.18-.17.24-.32,1.89-4.7,7.95-8.07,12.37-10.02.31-.14,2.05-.76,2.14-.83.17.02,2.06-.7,2.22-.83.15-.12.33-.03.46-.09s.29-.22.4-.27c.03-.02.11.01.16,0,.06-.01.12-.03.16-.08.03,0,.45-.13.55-.16.08-.02.12-.07.16-.08.11-.04.53-.14.55-.16l.16-.08c.25,0,2.43-.73,2.82-.87.69-.25,1.32-.57,1.82-1.11.99-1.07.95-1.63,2.44-2.39,2.71-1.39,6.74-1.98,8.93.61.33.39.84,1.53,1.03,1.7ZM51.9,40.38c-1.18.22-1.41,1.44-1.23,2.46.26,1.43,2.56,1.57,3.22.24.7-1.42-.41-3-1.99-2.7Z"/>
      <path class="st0" d="M85.53,94.58c.21-.04.16.1.2.24.21.8.39,1.44.68,2.22-.22.05-.15-.12-.2-.23-.26-.58-.66-1.6-.67-2.22Z"/>
      <path class="st0" d="M87.59,99.02c-.22,0-.44-.26-.4-.48.24-.03.7.05.63.4-.08.01-.21.08-.24.08Z"/>
      <path class="st0" d="M86.48,97.27c.23-.05.24.3.32.48-.22.05-.25-.3-.32-.48Z"/>
      <path class="st0" d="M84.58,99.02c.34.18.17.12.32.32-.27,0-.24-.2-.32-.32-.34-.18-.17-.13-.32-.32.27,0,.24.2.32.32Z"/>
      <path class="st0" d="M83.31,97.75c-.06-.06-.18-.19-.24-.24.16,0,.25.08.24.24Z"/>
      <path class="st0" d="M82.52,97.03c.14-.02.19.02.16.16-.19-.14-.07-.05-.16-.16Z"/>
      <path class="st0" d="M70.79,61.84c1.32-.03,2.64.02,3.96,0,0,0,2.36.3,2.69.32.05,0,.11,0,.16,0,.15.1.45.15.63.16.08,0,.16,0,.24,0,.05.12.21.08.32.08.08,0,.16,0,.24,0,.12.13.31.15.48.16.08,0,.16,0,.24,0,.04.1.15.08.24.08.05,0,.11,0,.16,0,.09.1.26.15.4.16.08,0,.16,0,.24,0,.18.09.53.23.71.24.05,0,.11,0,.16,0,.04.1.15.08.24.08.05,0,.11,0,.16,0,.07.11.19.15.32.16.05,0,.11,0,.16,0l.16.08s.12,0,.16,0c.27.12.84.37,1.11.4.05,0,.11,0,.16,0l.16.08c.04.05.38.07.48.08-.04.21.05.16.24.16.02.02.17-.01.24,0-.06.2.22.2.4.24.07.01.17-.01.24,0-.06.2.22.2.4.24.07.01.16-.01.24,0-.02.17,0,.18.16.16.02.02.17-.01.24,0-.02.17,0,.18.16.16.02.02.17-.01.24,0-.02.17,0,.18.16.16.01.02.11-.01.16,0-.06.21.22.19.4.24.13.03.26.05.4.08-.02.16,0,.18.16.16.02.02.4.14.48.16.03.11.12.16.24.16.01.01.11,0,.16,0-.03.15,0,.18.16.16.15.16.65.27.87.32-.03.15,0,.18.16.16.07.1,1.78.92,2.07,1.06.13.07,2.39,1.24,3.08,1.55,1.97.88,4.72,3.07,6.58,3.65-.02.17,0,.18.16.16,0,.01.06-.01.08,0-.03.17.34.32.45.38.16.08.24.13.42.17.04.01.11,0,.16,0-.02.17,0,.18.16.16,0,.01.06-.01.08,0-.05.2.15.2.32.24.05.01.11-.01.16,0-.05.2.15.2.32.24.05.01.11-.01.16,0-.06.21.22.19.4.24.11.03.2.05.32.08-.02.16,0,.18.16.16.02.02.25.05.32.08-.05.23.17.18.32.24.13.05.26.11.4.16-.06.2.22.2.4.24.03,0,.05,0,.08,0-.03.15,0,.18.16.16.04.07.25.05.32.08-.05.2.15.2.32.24.05.01.11-.01.16,0-.05.2.15.2.32.24.04.01.11,0,.16,0-.03.15,0,.18.16.16.04.07.25.06.32.08-.05.22.12.15.24.19.25.11.45.2.71.28.04.01.12-.01.16,0-.05.22.11.15.24.2.26.1.52.22.79.28,0,.03,0,.06,0,.08.1.23.21.45.33.66.06.11.03.25.22.21.01.04-.02.14,0,.16,0,.12.04.2.16.24.02.11.05.21.08.32.1.33.18.67.4.95,0,.05,0,.11,0,.16.03.18.13.41.24.55,0,.04,0,.15,0,.16-.02.17-.01.18.16.16,0,.08-.01.16,0,.24.05.36.15.71.32,1.03,0,.05,0,.11,0,.16.01.23.13.51.24.71,0,.05,0,.11,0,.16,0,.18-.01.37.16.48,0,.05,0,.11,0,.16,0,.09-.02.2.08.24,0,.07,0,.17,0,.24.02.24.15.64.24.87,0,.08,0,.16,0,.24,0,.33.15.71.24,1.03,0,.08,0,.16,0,.24,0,.2.03.47.16.63,0,.05,0,.11,0,.16,0,.12-.04.33.08.4,0,.08,0,.16,0,.24s0,.16,0,.24c-.5-.02-1-.05-1.51-.08-.16,0-.32,0-.48,0-.37-.02-.79-.06-1.19-.08-.13,0-.27,0-.4,0-.11,0-.47-.22-.63,0-.11-.02-.21-.06-.32-.08-.26-.06-.63-.19-.87,0-.29-.04-.58-.05-.87-.08-.48-.05-.93-.06-1.43-.08-.31-.01-.64,0-.95,0-1.19-.03-2.37-.02-3.57,0-.37,0-.74-.01-1.11,0-.72.02-1.45.05-2.14.08-.63.03-1.27.05-1.9.08h-4.12c-.56-.02-1.09-.09-1.66-.08-.36-.16-.86-.06-1.27-.08-.18,0-.37,0-.55,0s-.5-.08-.79-.08c-.05,0-.11,0-.16,0-.08-.13-.4-.13-.48,0-.19-.03-.37-.05-.55-.08-.23-.03-.35-.08-.63-.08-.11,0-.21,0-.32,0-.05-.12-.34-.12-.4,0-.05,0-.11,0-.16,0,.07-.24-.26-.16-.48-.16-.11,0-.21,0-.32,0-.08-.12-.33-.09-.48-.08-.05,0-.11,0-.16,0-.21-.11-.56-.15-.79-.16-.1,0-.21,0-.32,0-.05-.11-.22-.09-.32-.08-.05,0-.11,0-.16,0-.19-.12-.5-.16-.71-.16-.05,0-.11,0-.16,0-.05-.11-.21-.08-.32-.08-.05,0-.11,0-.16,0l-.12-.08-.04.08c-.05,0-.11,0-.16,0,.04-.21-.05-.16-.24-.16,0,0-.19,0-.24,0-.06-.13-.22-.07-.32-.08-.14-.02-.28-.07-.4-.08l-.16-.08s-.12,0-.16,0c-.44-.14-.99-.39-1.43-.48-.09-.02-.22,0-.32,0,.04-.21-.06-.17-.24-.16-.04-.05-.19-.05-.24-.08-.42-.27-1.26-.48-1.54-.72-.13-.11-.1-.27-.18-.31-.19-.08-.53-.07-.82-.19-.62-.26-1.79-1.1-2.37-1.52-3.21-2.34-9.28-8.69-9.59-12.76-.28-3.63,2.16-4.03,5.19-3.84,2.48.15,4.95.71,7.45.79.73.02,1.98.06,2.66-.12.08-.02.26-.08.15-.2-.1-.1-2.44-.2-2.81-.24-4.72-.51-15.61-3.39-12.86,5.41,1.31,4.19,7.02,10.01,10.65,12.41.27.18,1.33.71,1.45.85s.48.29.58.3c.14.02.98.54,1.04.53.08-.01.74.26.91.32.08.03.16.05.24.08.12.04.22.11.4.16.07.02.14.08.24.08l.16.08s.24,0,.32,0c-.02.17,0,.18.16.16,0,0,.12,0,.16,0l.16.08s.24,0,.32,0c-.04.21.05.16.24.16,0,0,.12,0,.16,0,.04.1.15.08.24.08.05,0,.11,0,.16,0,.09.1.26.15.4.16.08,0,.16,0,.24,0l.4.16s-.02.14,0,.16c-.02.17-.01.18.16.16,0,.02-.01.07,0,.08-.02.17-.01.18.16.16.09.15.08.19.24.32-.02.15.01.19.16.16.15.19.31.38.48.55-.02.14.02.18.16.16.18.17.37.32.55.48.07.26.37.57.63.63.06.07.1.17.16.24-.03.15,0,.19.16.16.03.05.05.11.08.16.53,1.08,1.04,2.04,1.27,3.25,0,.08,0,.16,0,.24,0,.62.41,1.65.67,2.22.05.12-.02.28.2.23.03.08.05.16.08.24.06.18.1.52.32.48.05.11.12.21.16.32.18.53-.07.23-.16.32-.18.19.43.68.39.82-.12.12-.79,1.25-.79,1.47,0,.05,0,.11,0,.16h-.32s.01-.07,0-.08c.05-.25-.12-.12-.16-.16-.06-.05.08-.15-.24-.32-.05-.12,0-.25-.24-.24-.18-.31-.34-.43-.55-.71-.15-.2.02-.14-.32-.32-.07-.12-.04-.32-.32-.32-.12-.16-.18-.19-.32-.32.06-.2-.14-.14-.16-.16,0,0-.14-.14-.16-.16-.04-.04-.01-.28-.24-.24-.03-.03-.05-.05-.08-.08,0-.16-.08-.24-.24-.24-.11-.11-.27-.22-.4-.32.03-.14-.02-.18-.16-.16-.14-.16-.23-.2-.4-.32,0-.26-.16-.24-.32-.32-.05-.03-.11-.05-.16-.08.03-.15-.01-.18-.16-.16-.12-.16-.09-.11-.24-.16.03-.14-.02-.18-.16-.16-.11-.14-.24-.24-.4-.32-.03-.11-.12-.16-.24-.16-.09-.1-.14-.1-.24-.16.03-.14-.02-.18-.16-.16-.05-.05-.11-.05-.16-.08.02-.17,0-.18-.16-.16,0-.01-.05,0-.08,0,.02-.17,0-.18-.16-.16,0-.01-.05,0-.08,0,.03-.15,0-.18-.16-.16-.11-.13-.26-.17-.4-.24.06-.23-.19-.17-.32-.24-.24-.13-.47-.27-.71-.4.03-.15,0-.18-.16-.16-.04-.04-.17-.06-.24-.08.02-.17,0-.18-.16-.16-.01-.01-.11,0-.16,0,.03-.15,0-.18-.16-.16-.04-.05-.18-.05-.24-.08.05-.23-.17-.18-.32-.24-.13-.06-.27-.1-.4-.16,0-.24-.57-.4-.79-.48-.04-.01-.11.01-.16,0,.05-.22-.16-.19-.32-.24-.02,0-.06,0-.08,0,.05-.23-.3-.25-.48-.32-.14-.06-.24-.11-.4-.16.03-.15,0-.18-.16-.16-.06-.05-.23-.11-.32-.16.05-.21-.16-.2-.32-.24-.02,0-.05,0-.08,0,.03-.15,0-.18-.16-.16-.03-.04-.17-.06-.24-.08.03-.15,0-.18-.16-.16-.02-.02-.11-.06-.16-.08.03-.15,0-.18-.16-.16-.11-.1-.22-.11-.32-.16,0-.16-.08-.24-.24-.24-.01-.01-.05,0-.08,0,.03-.15,0-.18-.16-.16-.02-.02-.11-.06-.16-.08.02-.17,0-.18-.16-.16-.01-.01-.06.01-.08,0-.01-.25-.15-.25-.32-.32-.02,0-.06,0-.08,0,0-.16-.08-.24-.24-.24-.03-.03-.11-.05-.16-.08,0-.16-.08-.24-.24-.24-.07-.06-.16-.1-.24-.16.01-.16-.08-.23-.24-.24-.15-.15-.25-.2-.4-.32,0-.16-.08-.23-.24-.24-.13-.11-.27-.21-.4-.32.02-.17,0-.18-.16-.16-.01-.02-.06-.04-.08-.08-.2-.32-.14-.16-.32-.32-.41-.35-.76-.78-1.19-1.11.02-.17,0-.18-.16-.16-.1-.12-.12-.14-.24-.24.02-.17,0-.18-.16-.16-.26-.34-.6-.61-.87-.95-.15-.19,0-.26-.4-.4-.04-.08.09-.2-.16-.16-.02-.05,0-.1-.04-.16-.05-.09-.13-.11-.2-.16,0-.16-.08-.25-.24-.24-.11-.16-.16-.25-.32-.4.02-.14-.02-.19-.16-.16-.05-.08-.11-.16-.16-.24-.08-.13-.05-.32-.32-.32-.14-.21-.25-.36-.4-.55-.07-.09-.04-.33-.32-.32-.03-.05-.05-.13-.08-.16.03-.15,0-.19-.16-.16,0-.03.01-.07,0-.08,0-.16-.08-.24-.24-.24-.03-.04-.03-.11-.08-.16.02-.14-.01-.19-.16-.16-.02-.04-.05-.13-.08-.16.03-.15,0-.19-.16-.16-.02-.04-.05-.13-.08-.16.03-.15,0-.19-.16-.16-.02-.04-.05-.13-.08-.16.03-.15,0-.19-.16-.16-.02-.04-.05-.13-.08-.16.03-.15,0-.19-.16-.16-.03-.05-.05-.11-.08-.16-.11-.22-.19-.59-.48-.63-.08-.14-.16-.26-.24-.4s-.03-.41-.32-.4c-.02-.05-.06-.11-.08-.16-.06-.15,0-.37-.24-.32-.01-.02.01-.07,0-.08.02-.17,0-.18-.16-.16-.05-.15-.1-.2-.16-.32-.09-.19-.14-.57-.4-.55-.02-.04-.06-.14-.08-.16.03-.15,0-.19-.16-.16-.01-.04.02-.14,0-.16,0-.16-.08-.24-.24-.24-.08-.24-.08-.33-.24-.55-.06-.18-.1-.52-.32-.48,0-.02,0-.06,0-.08-.13-.34-.24-.58-.41-.9-.06-.11-.03-.25-.22-.21,0-.02,0-.06,0-.08-.06-.18-.09-.52-.32-.48-.09-.19-.43-.85-.55-.95.02-.14-.01-.19-.16-.16,0-.02.01-.07,0-.08.02-.17.01-.18-.16-.16,0-.03.01-.07,0-.08,0-.16-.08-.24-.24-.24-.08-.13-.14-.34-.24-.48.54-.16,2.55-3.15,2.92-3.78.59-1,1.12-2.06,1.45-3.18l1.42-.17c.05,0,.11,0,.16,0,.27,0,.48-.07.63-.08.1,0,.21,0,.32,0,.35-.03.8,0,1.11-.16.05,0,.11,0,.16,0,.27,0,.47-.07.63-.08.08,0,.16,0,.24,0,.32-.03.73,0,1.03-.16.08,0,.16,0,.24,0,.17,0,.45.05.55-.08.08,0,.16,0,.24,0,.28,0,.62-.01.87-.16.11,0,.21,0,.32,0,.15,0,.39.05.48-.08.1,0,.21,0,.32,0s.26.04.32-.08c.05,0,.11,0,.16,0,.18,0,.28-.08.32-.08.13,0,.27,0,.4,0,.2-.01.45-.08.55-.08.21,0,.42,0,.63,0Z"/>
      <path class="st0" d="M118.98,89.27c-.04.24,1.82.08,1.82.08.42.02.85-.01,1.27,0,.1.21.18.13.32.16.02,0,2.71.69,2.85.71.17.03,1.14.25,1.19.32.12.17-.25.45-.37.54-.96.72-4.02,1.95-5.24,2.37-6.26,2.15-10.32.2-16.25-1.06-4.22-.9-6.59-.08-10.62.59-2.57.42-5.14.58-7.74.5-.27-.05-.46-1.03-.58-1.32-.81-1.93-1.76-2.31-3.07-3.67-.06-.06-.57-.67-.51-.72,2.18.27,4.35.63,6.54.79,5.34.39,10.71.02,16.01.08,4.81.06,9.58.54,14.39.63Z"/>
      <path class="st0" d="M112.08,77.54c.09.02.23.05.32.08-.05.21.16.19.32.24.1.03.21.05.32.08-.03.15,0,.18.16.16.04.04.17.06.24.08-.02.17,0,.18.16.16.01.01.11,0,.16,0-.03.15,0,.18.16.16.04.05.18.05.24.08-.05.23.18.17.32.24,3.31,1.52,7.58,4.57,10.3,6.97.03.2,1.07.8,1.26,1.17.04.08-.37,1.5-.41,1.54-.71.16-2.25.04-2.28.06-.04.03-.87,0-1.03,0-.47,0-.95.01-1.43,0-1.29-.03-2.65-.13-3.96-.16-.32,0-.64,0-.95,0-.28,0-.66-.09-1.03-.08-.11,0-.21,0-.32,0v-.16c0-.52-.02-.92-.08-1.43.18-.29.03-.8-.08-1.11,0-.08,0-.16,0-.24,0-.13.04-.33-.08-.4,0-.1,0-.22,0-.32,0-.17-.04-.42-.16-.55,0-.08,0-.16,0-.24,0-.09.02-.2-.08-.24,0-.03,0-.15,0-.16,0-.19.05-.27-.16-.24,0-.05,0-.11,0-.16,0,0,.06-.04.05-.1-.03-.4-.23-.87-.37-1.25,0-.05,0-.11,0-.16-.02-.3-.31-1.03-.44-1.35-.05-.12.02-.28-.2-.24-.02-.06.02-.22,0-.24.02-.17.01-.18-.16-.16-.03-.12-.04-.19-.08-.32-.07-.21-.14-.73-.4-.71-.11-.26-.15-.29-.26-.5-.06-.1-.18-.52-.21-.53.05,0,.11-.01.16,0Z"/>
      <path class="st0" d="M51.24,42.95c-.51-.51-.51-1.07.03-1.56.45-.41.97-.49,1.5-.17,1.51.9-.23,3.04-1.53,1.73Z"/>
      <path class="st0" d="M82.12,96.72c-.11-.07-.33-.04-.32-.32.15.08.31.05.32.32Z"/>
      <path class="st0" d="M83.63,98.06s.15.15.16.16c.02.02.21-.05.16.16-.1-.09-.12-.13-.16-.16-.08-.07-.11-.11-.16-.16-.08-.08-.17-.17-.24-.24.22-.04.2.2.24.24Z"/>
      <path class="st0" d="M92.82,115.18c-1.5-3.59-3.18-8.25-5.04-11.56-.62-1.1-1.13-1.25-.88-2.73s2.56-2.87,2.91-.88c.51,2.98,1.72,5.94,2.8,8.77.58,1.52,1.31,3.01,1.73,4.58.07.17.43,1.01.55,1.35.08.24.23.41.32.63.11.28.23.37.24.4.02.04-.02.22.02.33,1.22,3.03,2.62,6.84,4.25,9.63.38.66.51.98,1.28,1.18,1.88.48,3.4-.17,5.23-.44.09.08-.55.94-.05,1.48.16.17.66.31.69.34.31.31-1.18.24-1.3.23-.35-.04-.71-.23-1.06-.29-1.89-.32-3.58.71-5.43-.27-.13-.07-.46-.37-.5-.37-.07-.01-.93.55-1.17.63-1.54.52-3.2-.24-4.82.02-.82.13-1.55.5-2.44.22.03-.28.36-.29.56-.51.21-.24.28-.54.22-.85-.05-.24-.27-.38-.3-.61,1.99-.47,3.49.92,5.47.12.73-.3.64-.81.53-1.48-.41-2.53-2.43-6.68-3.47-9.18l-.32-.71ZM89.89,101.87c-.11-.02-.21,0-.32.04-.17.05-1.48.67-1.61.76-.35.25,0,.4.3.38.54-.03,1.61-.55,1.64-1.18Z"/>
      <path class="st0" d="M87.75,127.07l-.77,1.1c-.65.04-1.24-.07-1.89.01-.46.06-.91.27-1.35.32-.19.02-1.32,0-1.39-.08-.19-.19.24-.3.31-.36.49-.41.52-.9.13-1.39-.12-.15-.36-.1-.28-.39,1.79-.09,3.42.93,5.23.79Z"/>
      <path class="st0" d="M79.35,128.42c.15-.62,1.05-1.29,1.65-1.48.48-.15,1.76-.36,1.58.47-.15.7-1.74.52-2.31.63-.33.07-.62.25-.93.38Z"/>
      <path class="st0" d="M109.62,128.34s-.77-.27-.93-.3c-.55-.11-2.22.06-2.3-.7s1.2-.53,1.64-.38c.63.2,1.33.77,1.59,1.38Z"/>
      <path class="st0" d="M87.19,128.42c.26-.61,1.02-1.29,1.65-1.48.48-.15,1.75-.36,1.58.47-.14.71-1.68.51-2.24.62-.33.07-.68.27-.99.39Z"/>
      <path class="st0" d="M55.46,124.87c4.51-5.49,7.75-12.88,10.84-19.28.28-.57.96-1.49.99-2.11.01-.3-.11-.45-.04-.82.36-1.98,3.18-1.98,3.62.03.15.67.09,1.33-.41,1.84-.19.19-.53.32-.69.46-.9.8-2.24,3.38-2.89,4.52-1.7,2.99-3.33,6.03-4.99,9.04-.13.23-.33.49-.3.77-.05,0-.1-.02-.14.01-.32.58-.64,1.16-.97,1.73-.76,1.31-1.84,3.03-2.36,4.42-.38,1.02-.25,1.2.81,1.29.66.05,1.45,0,2.1-.11.93-.17,1.89-.8,2.83-.3.29.15-.03.17-.13.3-.6.84-.15,1.24.59,1.61.06.03.24.03.11.16-.36.38-2.73-.31-3.36-.31-1.45,0-2.51.58-4.03.05-.24-.08-.98-.6-1.04-.6-.07,0-.88.52-1.16.62-.33-.28-.55-.04-.95.16-.18,0-.38-.01-.55,0-.11-.15-.38-.07-.55-.08-.03,0-.05,0-.08,0-.01-.25-.21-.34-.32-.08-.1,0-.21,0-.32,0l-.12-.08-.04.08c-.29-.02-.54-.07-.87-.08l-.12-.08-.04.08c-1.01.06-1.78.5-2.81.4-.23-.02-.6-.05-.34-.26.3-.23.6-.3.67-.75.09-.5-.13-.64-.3-1.05,1.98-.5,3.77,1.03,5.68.02l.82-.81s.75-.66.84-.78ZM67.84,103.63c-.28-.17-.25.18-.2.4.13.65,1.1,1.14,1.72.85.14-.2-.71-.5-.87-.6-.12-.08-.37-.28-.49-.39-.09-.07-.15-.25-.17-.26Z"/>
      <path class="st0" d="M70.47,101c-.77-.25-1.4-.41-2.22-.24-.05-1.7-.12-3.41-.08-5.12,0-.19.08-.36.09-.55.05-2.21.06-4.42.23-6.62.05-.06.44.26.51.32.7.54,1.35,1.13,2.08,1.65.98.7,2.06,1.27,3.02,1.97-1.22,2.85-2.92,5.54-3.63,8.59Z"/>
      <path class="st0" d="M45.27,127.07l-.63.99c-.25.28-.98.03-1.3.04-.77.02-1.45.34-2.15.39-.18.01-1.25-.02-1.31-.08-.19-.19.24-.3.31-.36.51-.44.52-.86.15-1.41-.09-.14-.3-.1-.23-.36,1.15-.14,2.15.4,3.24.61.63.12,1.28.18,1.92.18Z"/>
      <path class="st0" d="M36.87,128.42c.11-.56.77-1.06,1.27-1.31.42-.2,1.77-.62,1.96.02.3,1-1.61.83-2.14.91-.38.06-.72.29-1.09.38Z"/>
      <path class="st0" d="M67.22,128.42c-.31-.12-.67-.33-.99-.39-.5-.09-2.45.07-2.3-.8.11-.67,1.17-.42,1.63-.27.65.2,1.41.83,1.67,1.46Z"/>
      <path class="st0" d="M44.79,128.34c.39-.99,1.77-1.7,2.81-1.5.21.04.46.34.41.56-.2.74-1.71.52-2.3.64-.15.03-.88.35-.92.31Z"/>
      <path class="st0" d="M52.08,128.18s-.08,0-.16,0l.04-.08.12.08Z"/>
      <path class="st0" d="M51.05,128.1s-.15,0-.16,0l.04-.08.12.08Z"/>
    </g>
    <g>
      <path class="st0" d="M69.77,56.31l.13-24.84,6.26.03-.13,24.84-6.26-.03Z"/>
      <path class="st0" d="M79.94,56.38l7.55-23.67,11.32,3.61c4.02,1.28,5.4,3.94,4.11,7.96l-.6,1.89c-.25.78-.69,1.37-1.32,1.77l-1.66,1.06,1.06,1.66c.56.86.64,1.89.26,3.11l-.74,2.33c-1.28,4.02-3.94,5.39-7.96,4.11l-12-3.83ZM87.62,52.9l5.73,1.83c.25.08.42,0,.5-.26l1.03-3.22c.08-.25,0-.42-.26-.5l-5.73-1.83-1.27,3.98ZM90.61,43.54l5.04,1.61c.25.08.42,0,.5-.26l.88-2.78c.08-.25,0-.42-.26-.5l-5.04-1.61-1.13,3.53Z"/>
      <path class="st0" d="M101,64.32l11.68-21.93,5.53,2.94-11.68,21.93-5.53-2.94Z"/>
      <path class="st0" d="M111.29,67.42l1.85-2.96,9.5,5.93c.22.14.41.1.54-.13l1.3-2.08c.18-.28.16-.52-.06-.72l-4.92-4.69c-2.24-2.08-2.45-4.57-.63-7.48l1.09-1.74c2.24-3.58,5.15-4.26,8.73-2.02l6.78,4.23,1.24,3.32-1.85,2.96-8.89-5.55c-.22-.14-.41-.1-.55.13l-1.22,1.95c-.17.27-.14.5.06.72l4.96,4.63c2.21,2.12,2.42,4.62.61,7.51l-1.18,1.89c-2.24,3.58-5.15,4.26-8.73,2.02l-7.39-4.61-1.24-3.32Z"/>
    </g>
  </g>
</svg>