<?xml version="1.0" encoding="UTF-8"?>
<svg id="Layer_1" xmlns="http://www.w3.org/2000/svg" version="1.1" viewBox="0 0 348.81 92.28">
  <!-- Generator: Adobe Illustrator 29.4.0, SVG Export Plug-In . SVG Version: 2.1.0 Build 152)  -->
  <defs>
    <style>
      .st0 {
        fill: #262626;
      }
    </style>
  </defs>
  <g>
    <path class="st0" d="M101.4,49.49c.17.12.86,1.23.95,1.43-.03,0-1.43-.03-1.61-.15-.05-.04.36-1.19.34-1.24-.09-.21.27-.07.32-.04Z"/>
    <path class="st0" d="M102.35,50.92s0,.12,0,.16l-.16.08c-.18-.01-.37,0-.55,0h-.24c-.2,0-.44-.02-.63,0-.15-.15-.63-.66-.64-.83,0-.11.46-.5.53-.51.19-.04.72.82.99.98.28.17.45,0,.71.13h0Z"/>
    <path class="st0" d="M63.75,61.14c-.22.2-.57-.32-.47-.55.25-.13.56.48.47.55Z"/>
    <path class="st0" d="M72.04,76.36c.05.03.05.05,0,.08v-.08Z"/>
    <path class="st0" d="M37.12,4.55c-.03.15,0,.19.16.16v.16c.04.19.11.26.16.4.04.11.14.53.16.55l.08.16v.24c0,.13.06.3.16.4v.16c0,.1-.03.26.08.32v.32c0,.09-.02.2.08.24,0,.14.06.32.08.48-.12.05-.12.34,0,.4,0,.31-.02.64,0,.95-.13.08-.08.33-.08.48v.32c-.1.04-.08.15-.08.24v.4c-.11.05-.08.21-.08.32v.16c-.1.11-.15.33-.16.48v.16c-.04.19-.3.15-.32.16-.05.05.2.5-.02.77-.2.24-.41.19-.29.73-.34-.13-.5,1.09-.48,1.11,0,.13-.51.93-.55,1.03-.11.03-.16.12-.16.24-.22.28-.33.63-.48.95-.17-.02-.18,0-.16.16v.08c-.23-.05-.25.3-.32.48-.06.14-.11.24-.16.4-.16-.02-.18,0-.16.16-.03.02-.21.54-.24.63-.11.03-.16.12-.16.24v.16c-.15-.03-.18,0-.16.16-.07.04-.06.24-.08.32-.2-.06-.2.22-.24.4v.16c-.16-.02-.18,0-.16.16-.02.02-.12.39-.16.48-.13.3-.3.61-.32.95v.16c-.24.15-.07.42-.08.48-.02.19-.17.91-.08,1.03,0,.19-.05.27.16.24.05.38.06.33.24.63.11.19.05.15.24.32.2.18.17.14.4.24-.07.18.58.38.71.4h.16c.02.17-.02.28-.09.42-.24.5-.68,1.14-.98,1.63-.8,1.3-2.26,3.95-3.2,4.92-2.5-2.94-3.9-7.11-1.99-10.75.93-1.77,2.69-2.83,3.56-4.68.76-1.61,1.51-5.45-.28-6.57-1.43-.89-4.94-.52-6.63-.34-4.47.45-8.85,1.44-13.04,3.01-.24.09-1.21.31-1.27.55h-.16c-.17-.02-.18,0-.16.16-.15.03-.18.04-.32.08-.11.03-.17,0-.24.16-2.1.47-5.93,3.63-7.33,5.31-.64.77-1.22,1.89-1.86,2.54l-.32-.04c2.18-5.03,7.39-8.11,12.28-10.07s9.96-2.99,15.14-3.41l.08-.2c-4.92-.11-9.92.86-14.52,2.56S2.98,15.7.83,20.38c-.24.53-.51,1.1-.57,1.69-.4-.14-.21-.4-.24-.79.13-.06.06-.22.08-.32s.05-.22.08-.32c.08-.25.24-.51.32-.79.02-.06-.01-.17,0-.24.22.05.18-.17.24-.32,1.89-4.7,7.95-8.07,12.37-10.02.31-.14,2.05-.76,2.14-.83.17.02,2.06-.7,2.22-.83.15-.12.33-.03.46-.09s.29-.22.4-.27c.03-.02.11,0,.16,0,.06,0,.12-.03.16-.08.03,0,.45-.13.55-.16.08-.02.12-.07.16-.08.11-.04.53-.14.55-.16l.16-.08c.25,0,2.43-.73,2.82-.87.69-.25,1.32-.57,1.82-1.11.99-1.07.95-1.63,2.44-2.39,2.71-1.39,6.74-1.98,8.93.61.33.39.84,1.53,1.03,1.7v-.08h0ZM27.35,2.98c-1.18.22-1.41,1.44-1.23,2.46.26,1.43,2.56,1.57,3.22.24.7-1.42-.41-3-1.99-2.7Z"/>
    <path class="st0" d="M60.98,57.18c.21-.04.16.1.2.24.21.8.39,1.44.68,2.22-.22.05-.15-.12-.2-.23-.26-.58-.66-1.6-.67-2.22h-.01Z"/>
    <path class="st0" d="M63.04,61.62c-.22,0-.44-.26-.4-.48.24-.03.7.05.63.4-.08.01-.21.08-.24.08h0Z"/>
    <path class="st0" d="M61.93,59.87c.23-.05.24.3.32.48-.22.05-.25-.3-.32-.48Z"/>
    <path class="st0" d="M60.03,61.62c.34.18.17.12.32.32-.27,0-.24-.2-.32-.32-.34-.18-.17-.13-.32-.32.27,0,.24.2.32.32Z"/>
    <path class="st0" d="M58.76,60.35c-.06-.06-.18-.19-.24-.24.16,0,.25.08.24.24Z"/>
    <path class="st0" d="M57.97,59.63c.14-.02.19.02.16.16-.19-.14-.07-.05-.16-.16Z"/>
    <path class="st0" d="M46.24,24.44c1.32-.03,2.64.02,3.96,0,0,0,2.36.3,2.69.32h.16c.15.1.45.15.63.16h.24c.05.12.21.08.32.08h.24c.12.13.31.15.48.16h.24c.04.1.15.08.24.08h.16c.09.1.26.15.4.16h.24c.18.09.53.23.71.24h.16c.04.1.15.08.24.08h.16c.07.11.19.15.32.16h.16l.16.08h.16c.27.12.84.37,1.11.4h.16l.16.08s.38.07.48.08c-.04.21.05.16.24.16.02.02.17,0,.24,0-.06.2.22.2.4.24.07,0,.17,0,.24,0-.06.2.22.2.4.24.07,0,.16,0,.24,0-.02.17,0,.18.16.16.02.02.17,0,.24,0-.02.17,0,.18.16.16.02.02.17,0,.24,0-.02.17,0,.18.16.16,0,.02.11,0,.16,0-.06.21.22.19.4.24.13.03.26.05.4.08-.02.16,0,.18.16.16.02.02.4.14.48.16.03.11.12.16.24.16,0,0,.11,0,.16,0-.03.15,0,.18.16.16.15.16.65.27.87.32-.03.15,0,.18.16.16.07.1,1.78.92,2.07,1.06.13.07,2.39,1.24,3.08,1.55,1.97.88,4.72,3.07,6.58,3.65-.02.17,0,.18.16.16,0,.01.06-.01.08,0-.03.17.34.32.45.38.16.08.24.13.42.17.04.01.11,0,.16,0-.02.17,0,.18.16.16,0,.01.06-.01.08,0-.05.2.15.2.32.24.05.01.11-.01.16,0-.05.2.15.2.32.24.05.01.11-.01.16,0-.06.21.22.19.4.24.11.03.2.05.32.08-.02.16,0,.18.16.16.02.02.25.05.32.08-.05.23.17.18.32.24.13.05.26.11.4.16-.06.2.22.2.4.24h.08c-.03.15,0,.18.16.16.04.07.25.05.32.08-.05.2.15.2.32.24.05.01.11-.01.16,0-.05.2.15.2.32.24.04.01.11,0,.16,0-.03.15,0,.18.16.16.04.07.25.06.32.08-.05.22.12.15.24.19.25.11.45.2.71.28.04.01.12-.01.16,0-.05.22.11.15.24.2.26.1.52.22.79.28v.08c.1.23.21.45.33.66.06.11.03.25.22.21,0,.04-.02.14,0,.16,0,.12.04.2.16.24.02.11.05.21.08.32.1.33.18.67.4.95v.16c.03.18.13.41.24.55v.16c-.02.17,0,.18.16.16,0,.08,0,.16,0,.24.05.36.15.71.32,1.03v.16c0,.23.13.51.24.71v.16c0,.18,0,.37.16.48v.16c0,.09-.02.2.08.24v.24c.02.24.15.64.24.87v.24c0,.33.15.71.24,1.03v.24c0,.2.03.47.16.63v.16c0,.12-.04.33.08.4v.48c-.5-.02-1-.05-1.51-.08h-.48c-.37-.02-.79-.06-1.19-.08h-.4c-.11,0-.47-.22-.63,0-.11-.02-.21-.06-.32-.08-.26-.06-.63-.19-.87,0-.29-.04-.58-.05-.87-.08-.48-.05-.93-.06-1.43-.08-.31-.01-.64,0-.95,0-1.19-.03-2.37-.02-3.57,0-.37,0-.74-.01-1.11,0-.72.02-1.45.05-2.14.08-.63.03-1.27.05-1.9.08h-4.12c-.56-.02-1.09-.09-1.66-.08-.36-.16-.86-.06-1.27-.08h-.55c-.18,0-.5-.08-.79-.08h-.16c-.08-.13-.4-.13-.48,0-.19-.03-.37-.05-.55-.08-.23-.03-.35-.08-.63-.08h-.32c-.05-.12-.34-.12-.4,0h-.16c.07-.24-.26-.16-.48-.16h-.32c-.08-.12-.33-.09-.48-.08h-.16c-.21-.11-.56-.15-.79-.16h-.32c-.05-.11-.22-.09-.32-.08h-.16c-.19-.12-.5-.16-.71-.16h-.16c-.05-.11-.21-.08-.32-.08h-.16l-.12-.08-.04.08h-.16c.04-.21-.05-.16-.24-.16h-.24c-.06-.13-.22-.07-.32-.08-.14-.02-.28-.07-.4-.08l-.16-.08h-.16c-.44-.14-.99-.39-1.43-.48-.09-.02-.22,0-.32,0,.04-.21-.06-.17-.24-.16-.04-.05-.19-.05-.24-.08-.42-.27-1.26-.48-1.54-.72-.13-.11-.1-.27-.18-.31-.19-.08-.53-.07-.82-.19-.62-.26-1.79-1.1-2.37-1.52-3.21-2.34-9.28-8.69-9.59-12.76-.28-3.63,2.16-4.03,5.19-3.84,2.48.15,4.95.71,7.45.79.73.02,1.98.06,2.66-.12.08-.02.26-.08.15-.2-.1-.1-2.44-.2-2.81-.24-4.72-.51-15.61-3.39-12.86,5.41,1.31,4.19,7.02,10.01,10.65,12.41.27.18,1.33.71,1.45.85s.48.29.58.3c.14.02.98.54,1.04.53.08-.01.74.26.91.32.08.03.16.05.24.08.12.04.22.11.4.16.07.02.14.08.24.08l.16.08h.32c-.02.17,0,.18.16.16h.16l.16.08h.32c-.04.21.05.16.24.16h.16c.04.1.15.08.24.08h.16c.09.1.26.15.4.16h.24l.4.16s-.02.14,0,.16c-.02.17-.01.18.16.16,0,.02-.01.07,0,.08-.02.17-.01.18.16.16.09.15.08.19.24.32-.02.15.01.19.16.16.15.19.31.38.48.55-.02.14.02.18.16.16.18.17.37.32.55.48.07.26.37.57.63.63.06.07.1.17.16.24-.03.15,0,.19.16.16.03.05.05.11.08.16.53,1.08,1.04,2.04,1.27,3.25v.24c0,.62.41,1.65.67,2.22.05.12-.02.28.2.23.03.08.05.16.08.24.06.18.1.52.32.48.05.11.12.21.16.32.18.53-.07.23-.16.32-.18.19.43.68.39.82-.12.12-.79,1.25-.79,1.47v.16h-.32s.01-.07,0-.08c.05-.25-.12-.12-.16-.16-.06-.05.08-.15-.24-.32-.05-.12,0-.25-.24-.24-.18-.31-.34-.43-.55-.71-.15-.2.02-.14-.32-.32-.07-.12-.04-.32-.32-.32-.12-.16-.18-.19-.32-.32.06-.2-.14-.14-.16-.16l-.16-.16s-.01-.28-.24-.24l-.08-.08c0-.16-.08-.24-.24-.24-.11-.11-.27-.22-.4-.32.03-.14-.02-.18-.16-.16-.14-.16-.23-.2-.4-.32,0-.26-.16-.24-.32-.32-.05-.03-.11-.05-.16-.08.03-.15-.01-.18-.16-.16-.12-.16-.09-.11-.24-.16.03-.14-.02-.18-.16-.16-.11-.14-.24-.24-.4-.32-.03-.11-.12-.16-.24-.16-.09-.1-.14-.1-.24-.16.03-.14-.02-.18-.16-.16-.05-.05-.11-.05-.16-.08.02-.17,0-.18-.16-.16,0-.01-.05,0-.08,0,.02-.17,0-.18-.16-.16,0-.01-.05,0-.08,0,.03-.15,0-.18-.16-.16-.11-.13-.26-.17-.4-.24.06-.23-.19-.17-.32-.24-.24-.13-.47-.27-.71-.4.03-.15,0-.18-.16-.16-.04-.04-.17-.06-.24-.08.02-.17,0-.18-.16-.16-.01-.01-.11,0-.16,0,.03-.15,0-.18-.16-.16-.04-.05-.18-.05-.24-.08.05-.23-.17-.18-.32-.24-.13-.06-.27-.1-.4-.16,0-.24-.57-.4-.79-.48-.04-.01-.11.01-.16,0,.05-.22-.16-.19-.32-.24h-.08c.05-.23-.3-.25-.48-.32-.14-.06-.24-.11-.4-.16.03-.15,0-.18-.16-.16-.06-.05-.23-.11-.32-.16.05-.21-.16-.2-.32-.24h-.08c.03-.15,0-.18-.16-.16-.03-.04-.17-.06-.24-.08.03-.15,0-.18-.16-.16-.02-.02-.11-.06-.16-.08.03-.15,0-.18-.16-.16-.11-.1-.22-.11-.32-.16,0-.16-.08-.24-.24-.24-.01-.01-.05,0-.08,0,.03-.15,0-.18-.16-.16-.02-.02-.11-.06-.16-.08.02-.17,0-.18-.16-.16-.01-.01-.06.01-.08,0-.01-.25-.15-.25-.32-.32h-.08c0-.16-.08-.24-.24-.24-.03-.03-.11-.05-.16-.08,0-.16-.08-.24-.24-.24-.07-.06-.16-.1-.24-.16.01-.16-.08-.23-.24-.24-.15-.15-.25-.2-.4-.32,0-.16-.08-.23-.24-.24-.13-.11-.27-.21-.4-.32.02-.17,0-.18-.16-.16-.01-.02-.06-.04-.08-.08-.2-.32-.14-.16-.32-.32-.41-.35-.76-.78-1.19-1.11.02-.17,0-.18-.16-.16-.1-.12-.12-.14-.24-.24.02-.17,0-.18-.16-.16-.26-.34-.6-.61-.87-.95-.15-.19,0-.26-.4-.4-.04-.08.09-.2-.16-.16-.02-.05,0-.1-.04-.16-.05-.09-.13-.11-.2-.16,0-.16-.08-.25-.24-.24-.11-.16-.16-.25-.32-.4.02-.14-.02-.19-.16-.16-.05-.08-.11-.16-.16-.24-.08-.13-.05-.32-.32-.32-.14-.21-.25-.36-.4-.55-.07-.09-.04-.33-.32-.32-.03-.05-.05-.13-.08-.16.03-.15,0-.19-.16-.16v-.08c0-.16-.08-.24-.24-.24-.03-.04-.03-.11-.08-.16.02-.14,0-.19-.16-.16-.02-.04-.05-.13-.08-.16.03-.15,0-.19-.16-.16-.02-.04-.05-.13-.08-.16.03-.15,0-.19-.16-.16-.02-.04-.05-.13-.08-.16.03-.15,0-.19-.16-.16-.02-.04-.05-.13-.08-.16.03-.15,0-.19-.16-.16-.03-.05-.05-.11-.08-.16-.11-.22-.19-.59-.48-.63-.08-.14-.16-.26-.24-.4s-.03-.41-.32-.4c-.02-.05-.06-.11-.08-.16-.06-.15,0-.37-.24-.32v-.08c.02-.17,0-.18-.16-.16-.05-.15-.1-.2-.16-.32-.09-.19-.14-.57-.4-.55-.02-.04-.06-.14-.08-.16.03-.15,0-.19-.16-.16,0-.04.02-.14,0-.16,0-.16-.08-.24-.24-.24-.08-.24-.08-.33-.24-.55-.06-.18-.1-.52-.32-.48v-.08c-.13-.34-.24-.58-.41-.9-.06-.11-.03-.25-.22-.21v-.08c-.06-.18-.09-.52-.32-.48-.09-.19-.43-.85-.55-.95.02-.14,0-.19-.16-.16v-.08c.02-.17,0-.18-.16-.16v-.08c0-.16-.08-.24-.24-.24-.08-.13-.14-.34-.24-.48.54-.16,2.55-3.15,2.92-3.78.59-1,1.12-2.06,1.45-3.18l1.42-.17h.16c.27,0,.48-.07.63-.08h.32c.35-.03.8,0,1.11-.16h.16c.27,0,.47-.07.63-.08h.24c.32-.03.73,0,1.03-.16h.24c.17,0,.45.05.55-.08h.24c.28,0,.62,0,.87-.16h.32c.15,0,.39.05.48-.08h.32c.11,0,.26.04.32-.08h.16c.18,0,.28-.08.32-.08h.4c.2,0,.45-.08.55-.08h.63l.08.12h0Z"/>
    <path class="st0" d="M94.43,51.87c-.04.24,1.82.08,1.82.08.42.02.85-.01,1.27,0,.1.21.18.13.32.16.02,0,2.71.69,2.85.71.17.03,1.14.25,1.19.32.12.17-.25.45-.37.54-.96.72-4.02,1.95-5.24,2.37-6.26,2.15-10.32.2-16.25-1.06-4.22-.9-6.59-.08-10.62.59-2.57.42-5.14.58-7.74.5-.27-.05-.46-1.03-.58-1.32-.81-1.93-1.76-2.31-3.07-3.67-.06-.06-.57-.67-.51-.72,2.18.27,4.35.63,6.54.79,5.34.39,10.71.02,16.01.08,4.81.06,9.58.54,14.39.63h-.01Z"/>
    <path class="st0" d="M87.53,40.14c.09.02.23.05.32.08-.05.21.16.19.32.24.1.03.21.05.32.08-.03.15,0,.18.16.16.04.04.17.06.24.08-.02.17,0,.18.16.16,0,.01.11,0,.16,0-.03.15,0,.18.16.16.04.05.18.05.24.08-.05.23.18.17.32.24,3.31,1.52,7.58,4.57,10.3,6.97.03.2,1.07.8,1.26,1.17.04.08-.37,1.5-.41,1.54-.71.16-2.25.04-2.28.06-.04.03-.87,0-1.03,0-.47,0-.95.01-1.43,0-1.29-.03-2.65-.13-3.96-.16h-.95c-.28,0-.66-.09-1.03-.08h-.32v-.16c0-.52-.02-.92-.08-1.43.18-.29.03-.8-.08-1.11v-.24c0-.13.04-.33-.08-.4v-.32c0-.17-.04-.42-.16-.55v-.24c0-.09.02-.2-.08-.24v-.16c0-.19.05-.27-.16-.24v-.16s.06-.04.05-.1c-.03-.4-.23-.87-.37-1.25v-.16c-.02-.3-.31-1.03-.44-1.35-.05-.12.02-.28-.2-.24-.02-.06.02-.22,0-.24.02-.17,0-.18-.16-.16-.03-.12-.04-.19-.08-.32-.07-.21-.14-.73-.4-.71-.11-.26-.15-.29-.26-.5-.06-.1-.18-.52-.21-.53.05,0,.11-.01.16,0v.03h0Z"/>
    <path class="st0" d="M26.69,5.55c-.51-.51-.51-1.07.03-1.56.45-.41.97-.49,1.5-.17,1.51.9-.23,3.04-1.53,1.73Z"/>
    <path class="st0" d="M57.57,59.32c-.11-.07-.33-.04-.32-.32.15.08.31.05.32.32Z"/>
    <path class="st0" d="M59.08,60.66l.16.16s.21-.05.16.16c-.1-.09-.12-.13-.16-.16-.08-.07-.11-.11-.16-.16l-.24-.24c.22-.04.2.2.24.24Z"/>
    <path class="st0" d="M68.27,77.78c-1.5-3.59-3.18-8.25-5.04-11.56-.62-1.1-1.13-1.25-.88-2.73.25-1.48,2.56-2.87,2.91-.88.51,2.98,1.72,5.94,2.8,8.77.58,1.52,1.31,3.01,1.73,4.58.07.17.43,1.01.55,1.35.08.24.23.41.32.63.11.28.23.37.24.4.02.04-.02.22.02.33,1.22,3.03,2.62,6.84,4.25,9.63.38.66.51.98,1.28,1.18,1.88.48,3.4-.17,5.23-.44.09.08-.55.94-.05,1.48.16.17.66.31.69.34.31.31-1.18.24-1.3.23-.35-.04-.71-.23-1.06-.29-1.89-.32-3.58.71-5.43-.27-.13-.07-.46-.37-.5-.37-.07-.01-.93.55-1.17.63-1.54.52-3.2-.24-4.82.02-.82.13-1.55.5-2.44.22.03-.28.36-.29.56-.51.21-.24.28-.54.22-.85-.05-.24-.27-.38-.3-.61,1.99-.47,3.49.92,5.47.12.73-.3.64-.81.53-1.48-.41-2.53-2.43-6.68-3.47-9.18l-.32-.71s-.02-.03-.02-.03ZM65.34,64.47c-.11-.02-.21,0-.32.04-.17.05-1.48.67-1.61.76-.35.25,0,.4.3.38.54-.03,1.61-.55,1.64-1.18h0Z"/>
    <path class="st0" d="M63.2,89.67l-.77,1.1c-.65.04-1.24-.07-1.89,0-.46.06-.91.27-1.35.32-.19.02-1.32,0-1.39-.08-.19-.19.24-.3.31-.36.49-.41.52-.9.13-1.39-.12-.15-.36-.1-.28-.39,1.79-.09,3.42.93,5.23.79h0Z"/>
    <path class="st0" d="M54.8,91.02c.15-.62,1.05-1.29,1.65-1.48.48-.15,1.76-.36,1.58.47-.15.7-1.74.52-2.31.63-.33.07-.62.25-.93.38h0Z"/>
    <path class="st0" d="M85.07,90.94s-.77-.27-.93-.3c-.55-.11-2.22.06-2.3-.7s1.2-.53,1.64-.38c.63.2,1.33.77,1.59,1.38Z"/>
    <path class="st0" d="M62.64,91.02c.26-.61,1.02-1.29,1.65-1.48.48-.15,1.75-.36,1.58.47-.14.71-1.68.51-2.24.62-.33.07-.68.27-.99.39h0Z"/>
    <path class="st0" d="M30.91,87.47c4.51-5.49,7.75-12.88,10.84-19.28.28-.57.96-1.49.99-2.11.01-.3-.11-.45-.04-.82.36-1.98,3.18-1.98,3.62.03.15.67.09,1.33-.41,1.84-.19.19-.53.32-.69.46-.9.8-2.24,3.38-2.89,4.52-1.7,2.99-3.33,6.03-4.99,9.04-.13.23-.33.49-.3.77-.05,0-.1-.02-.14.01-.32.58-.64,1.16-.97,1.73-.76,1.31-1.84,3.03-2.36,4.42-.38,1.02-.25,1.2.81,1.29.66.05,1.45,0,2.1-.11.93-.17,1.89-.8,2.83-.3.29.15-.03.17-.13.3-.6.84-.15,1.24.59,1.61.06.03.24.03.11.16-.36.38-2.73-.31-3.36-.31-1.45,0-2.51.58-4.03.05-.24-.08-.98-.6-1.04-.6-.07,0-.88.52-1.16.62-.33-.28-.55-.04-.95.16h-.55c-.11-.15-.38-.07-.55-.08h-.08c0-.25-.21-.34-.32-.08h-.32l-.12-.08-.04.08c-.29-.02-.54-.07-.87-.08l-.12-.08-.04.08c-1.01.06-1.78.5-2.81.4-.23-.02-.6-.05-.34-.26.3-.23.6-.3.67-.75.09-.5-.13-.64-.3-1.05,1.98-.5,3.77,1.03,5.68.02l.82-.81s.75-.66.84-.78h.02ZM43.29,66.23c-.28-.17-.25.18-.2.4.13.65,1.1,1.14,1.72.85.14-.2-.71-.5-.87-.6-.12-.08-.37-.28-.49-.39-.09-.07-.15-.25-.17-.26h0Z"/>
    <path class="st0" d="M45.92,63.6c-.77-.25-1.4-.41-2.22-.24-.05-1.7-.12-3.41-.08-5.12,0-.19.08-.36.09-.55.05-2.21.06-4.42.23-6.62.05-.06.44.26.51.32.7.54,1.35,1.13,2.08,1.65.98.7,2.06,1.27,3.02,1.97-1.22,2.85-2.92,5.54-3.63,8.59Z"/>
    <path class="st0" d="M20.72,89.67l-.63.99c-.25.28-.98.03-1.3.04-.77.02-1.45.34-2.15.39-.18,0-1.25-.02-1.31-.08-.19-.19.24-.3.31-.36.51-.44.52-.86.15-1.41-.09-.14-.3-.1-.23-.36,1.15-.14,2.15.4,3.24.61.63.12,1.28.18,1.92.18h0Z"/>
    <path class="st0" d="M12.32,91.02c.11-.56.77-1.06,1.27-1.31.42-.2,1.77-.62,1.96.02.3,1-1.61.83-2.14.91-.38.06-.72.29-1.09.38Z"/>
    <path class="st0" d="M42.67,91.02c-.31-.12-.67-.33-.99-.39-.5-.09-2.45.07-2.3-.8.11-.67,1.17-.42,1.63-.27.65.2,1.41.83,1.67,1.46,0,0-.01,0,0,0Z"/>
    <path class="st0" d="M20.24,90.94c.39-.99,1.77-1.7,2.81-1.5.21.04.46.34.41.56-.2.74-1.71.52-2.3.64-.15.03-.88.35-.92.31h0Z"/>
    <path class="st0" d="M27.53,90.78h-.16l.04-.08.12.08Z"/>
    <path class="st0" d="M26.5,90.7h-.16l.04-.08.12.08Z"/>
  </g>
  <g>
    <path d="M132.84,90.84V1.44h18.6v89.4h-18.6Z"/>
    <path d="M167.28,90.84V1.44h37.8c6.16,0,11.44,1.04,15.84,3.12s7.76,5.06,10.08,8.94c2.32,3.88,3.48,8.58,3.48,14.1,0,3.92-1.08,7.66-3.24,11.22s-5.72,6.54-10.68,8.94v-9.12c4.72,1.84,8.36,4.04,10.92,6.6,2.56,2.56,4.32,5.34,5.28,8.34s1.44,6.14,1.44,9.42c0,8.8-2.92,15.64-8.76,20.52-5.84,4.88-13.96,7.32-24.36,7.32h-37.8ZM185.88,35.04h20.52c2.88,0,5.18-.82,6.9-2.46s2.58-3.82,2.58-6.54-.86-4.9-2.58-6.54-4.02-2.46-6.9-2.46h-20.52v18h0ZM185.88,74.64h21.36c3.76,0,6.76-1.08,9-3.24,2.24-2.16,3.36-4.96,3.36-8.4s-1.12-6.36-3.36-8.52c-2.24-2.16-5.24-3.24-9-3.24h-21.36v23.4h0Z"/>
    <path d="M250.08,90.84V1.44h18.6v89.4h-18.6Z"/>
    <path d="M317.04,92.28c-5.6,0-10.86-1.02-15.78-3.06s-9.16-4.94-12.72-8.7c-3.56-3.76-6.22-8.2-7.98-13.32l15.24-6.84c2.24,4.88,5.34,8.72,9.3,11.52s8.34,4.2,13.14,4.2c2.56,0,4.76-.4,6.6-1.2,1.84-.8,3.28-1.9,4.32-3.3s1.56-3.06,1.56-4.98c0-2.08-.64-3.86-1.92-5.34s-3.28-2.66-6-3.54l-17.52-5.76c-7.12-2.32-12.48-5.62-16.08-9.9-3.6-4.28-5.4-9.42-5.4-15.42,0-5.28,1.3-9.92,3.9-13.92s6.24-7.12,10.92-9.36c4.68-2.24,10.06-3.36,16.14-3.36,5.36,0,10.32.92,14.88,2.76s8.5,4.44,11.82,7.8,5.82,7.4,7.5,12.12l-15.12,6.84c-1.68-4.16-4.2-7.42-7.56-9.78s-7.2-3.54-11.52-3.54c-2.48,0-4.68.4-6.6,1.2s-3.4,1.94-4.44,3.42c-1.04,1.48-1.56,3.18-1.56,5.1,0,2.08.68,3.9,2.04,5.46,1.36,1.56,3.4,2.78,6.12,3.66l17.16,5.52c7.2,2.32,12.58,5.56,16.14,9.72,3.56,4.16,5.34,9.24,5.34,15.24,0,5.2-1.36,9.82-4.08,13.86s-6.46,7.2-11.22,9.48-10.3,3.42-16.62,3.42h0Z"/>
  </g>
</svg>